#!OML:ASF X:\für Bonn\!DataBase\2005_08_11_Bastian_Final\c3d\Bastian.ASF
:FULLY-SPECIFIED
:DEGREES
1176
root -0.329589 17.3114 -4.27606 170.685 17.721 -177.981
lowerback 10.1233 -2.70434 -0.489424
upperback 9.15876 -2.60856 -0.701065
thorax 3.88447 -0.879882 -0.25593
lowerneck -9.92048 -0.594631 1.14214
upperneck -9.64298 0.279124 5.0163
head -1.37472 0.452231 1.37502
rclavicle -7.65321e-015 1.94809e-014
rhumerus -39.4706 2.45044 -86.815
rradius 85.0238
rwrist -182.615
rhand -13.9458 -11.3214
rfingers 7.12502
rthumb 12.1813 -40.9467
lclavicle -7.65321e-015 1.94809e-014
lhumerus -25.1377 0.157331 81.7312
lradius 49.0198
lwrist 222.674
lhand -21.8136 16.1776
lfingers 7.12502
lthumb 4.58877 46.1079
rfemur -2.00491 -8.10264 20.5886
rtibia 44.6611
rfoot -21.1338 -18.2247
rtoes 5.47776
lfemur 1.84942 7.26772 -16.591
ltibia 30.0115
lfoot -13.5194 -8.02882
ltoes 1.31789
1177
root -0.332588 17.3118 -4.25752 170.703 17.8546 -178.01
lowerback 9.95825 -2.69523 -0.480835
upperback 9.08928 -2.61622 -0.684321
thorax 3.9005 -0.892379 -0.247703
lowerneck -10.0195 -0.596682 1.08069
upperneck -9.44755 0.255133 5.03241
head -1.29556 0.440991 1.38942
rclavicle -4.37326e-014 1.74931e-014
rhumerus -39.4548 2.39072 -86.8245
rradius 85.424
rwrist -182.522
rhand -13.7509 -11.558
rfingers 7.12502
rthumb 12.3693 -41.172
lclavicle -4.37326e-014 1.74931e-014
lhumerus -25.4496 -0.275068 82.0549
lradius 50.1435
lwrist 223.562
lhand -21.9155 16.2362
lfingers 7.12502
lthumb 4.49033 46.1686
rfemur -1.69042 -8.54247 20.3675
rtibia 44.6442
rfoot -21.2693 -19.0192
rtoes 6.05372
lfemur 1.78821 7.25561 -16.6366
ltibia 29.9862
lfoot -13.4926 -7.87077
ltoes 1.21955
1178
root -0.33646 17.3126 -4.23763 170.741 18.0029 -178.067
lowerback 9.7871 -2.68095 -0.485526
upperback 9.01664 -2.61812 -0.678276
thorax 3.91685 -0.902569 -0.24374
lowerneck -10.1474 -0.597963 1.03034
upperneck -9.25768 0.234177 5.05519
head -1.21382 0.4324 1.40422
rclavicle 4.88016e-014 6.75868e-015
rhumerus -39.4287 2.3527 -86.8023
rradius 85.8978
rwrist -182.426
rhand -13.6005 -11.7305
rfingers 7.12502
rthumb 12.5143 -41.3358
lclavicle 4.88016e-014 6.75868e-015
lhumerus -25.7654 -0.713462 82.3728
lradius 51.2898
lwrist 224.371
lhand -22.0518 16.335
lfingers 7.12502
lthumb 4.35875 46.2702
rfemur -1.42423 -8.98402 20.1087
rtibia 44.6217
rfoot -21.3485 -19.5897
rtoes 6.79268
lfemur 1.68501 7.23619 -16.7225
ltibia 29.9654
lfoot -13.4815 -7.67017
ltoes 1.16733
1179
root -0.339306 17.3141 -4.2167 170.77 18.1804 -178.119
lowerback 9.63845 -2.65232 -0.480837
upperback 8.94117 -2.59981 -0.67301
thorax 3.91745 -0.901863 -0.246194
lowerneck -10.2018 -0.609112 0.983702
upperneck -9.12714 0.205109 5.06839
head -1.16272 0.417874 1.4154
rclavicle 1.99779e-014 -7.95139e-016
rhumerus -39.4035 2.28844 -86.7775
rradius 86.3971
rwrist -182.332
rhand -13.5057 -11.8783
rfingers 7.12502
rthumb 12.6057 -41.478
lclavicle 1.99779e-014 -7.95139e-016
lhumerus -26.0881 -1.16682 82.7069
lradius 52.4266
lwrist 225.13
lhand -22.1921 16.4605
lfingers 7.12502
lthumb 4.22328 46.3984
rfemur -1.14769 -9.40382 19.8609
rtibia 44.6039
rfoot -21.4699 -20.0688
rtoes 7.88548
lfemur 1.59389 7.34439 -16.7656
ltibia 29.9473
lfoot -13.4428 -7.55597
ltoes 1.02452
1180
root -0.341678 17.3158 -4.1945 170.826 18.3642 -178.125
lowerback 9.48542 -2.63271 -0.440419
upperback 8.881 -2.58923 -0.650999
thorax 3.93586 -0.902686 -0.251063
lowerneck -10.3542 -0.607675 0.923889
upperneck -8.92946 0.189336 5.09839
head -1.07492 0.413076 1.43439
rclavicle 2.00773e-014 1.23246e-014
rhumerus -39.3504 2.21113 -86.7356
rradius 86.9144
rwrist -182.356
rhand -13.5199 -11.9808
rfingers 7.12502
rthumb 12.592 -41.5813
lclavicle 2.00773e-014 1.23246e-014
lhumerus -26.3736 -1.64483 83.0447
lradius 53.537
lwrist 225.93
lhand -22.3603 16.6513
lfingers 7.12502
lthumb 4.06084 46.5923
rfemur -0.879189 -9.79857 19.6704
rtibia 44.5821
rfoot -21.6026 -20.4748
rtoes 8.87051
lfemur 1.48386 7.34202 -16.7839
ltibia 29.9418
lfoot -13.4232 -7.36551
ltoes 1.02122
1181
root -0.344446 17.3182 -4.17157 170.858 18.5636 -178.133
lowerback 9.38248 -2.608 -0.39103
upperback 8.80214 -2.57277 -0.632552
thorax 3.90634 -0.900488 -0.262929
lowerneck -10.3977 -0.590136 0.894208
upperneck -8.77837 0.194546 5.10743
head -1.02002 0.41457 1.4421
rclavicle -2.29596e-014 1.11319e-014
rhumerus -39.3212 2.14675 -86.6739
rradius 87.4229
rwrist -182.448
rhand -13.617 -12.0807
rfingers 7.12502
rthumb 12.4983 -41.6869
lclavicle -2.29596e-014 1.11319e-014
lhumerus -26.6954 -2.05537 83.3709
lradius 54.6466
lwrist 226.553
lhand -22.598 16.8221
lfingers 7.12502
lthumb 3.83129 46.7674
rfemur -0.587521 -10.1644 19.4718
rtibia 44.5681
rfoot -21.7202 -20.839
rtoes 9.98473
lfemur 1.39342 7.43521 -16.7808
ltibia 29.9404
lfoot -13.4175 -7.2081
ltoes 0.596805
1182
root -0.347119 17.3205 -4.1471 170.933 18.7583 -178.129
lowerback 9.2597 -2.58005 -0.300262
upperback 8.72643 -2.54914 -0.625808
thorax 3.88855 -0.892148 -0.311071
lowerneck -10.5016 -0.577096 0.870108
upperneck -8.60898 0.196706 5.16072
head -0.949735 0.417217 1.4631
rclavicle -4.37326e-015 1.70955e-014
rhumerus -39.2719 2.04965 -86.6234
rradius 87.9825
rwrist -182.622
rhand -13.7775 -12.1226
rfingers 7.12502
rthumb 12.3437 -41.7382
lclavicle -4.37326e-015 1.70955e-014
lhumerus -26.9962 -2.51416 83.6815
lradius 55.7868
lwrist 227.163
lhand -22.8362 17.037
lfingers 7.12502
lthumb 3.60124 46.9863
rfemur -0.347231 -10.5392 19.2967
rtibia 44.5494
rfoot -21.7974 -21.1825
rtoes 10.6731
lfemur 1.23457 7.42229 -16.7928
ltibia 29.9584
lfoot -13.4188 -6.98104
ltoes 0.421094
1183
root -0.34935 17.3237 -4.12149 170.997 18.9642 -178.125
lowerback 9.16454 -2.55254 -0.21023
upperback 8.63954 -2.52714 -0.618012
thorax 3.84399 -0.885117 -0.356484
lowerneck -10.554 -0.565406 0.863204
upperneck -8.4412 0.191987 5.18917
head -0.88807 0.41374 1.47304
rclavicle 3.6477e-014 -2.38542e-014
rhumerus -39.2183 2.00955 -86.5788
rradius 88.5332
rwrist -182.839
rhand -13.9625 -12.1461
rfingers 7.12502
rthumb 12.1652 -41.7724
lclavicle 3.6477e-014 -2.38542e-014
lhumerus -27.3498 -2.96796 83.9945
lradius 56.9523
lwrist 227.692
lhand -23.087 17.3085
lfingers 7.12502
lthumb 3.35911 47.2618
rfemur -0.0951444 -10.9 19.1166
rtibia 44.5319
rfoot -21.8983 -21.4844
rtoes 11.6878
lfemur 1.0796 7.50437 -16.7749
ltibia 29.9863
lfoot -13.393 -6.83894
ltoes 0.28745
1184
root -0.351448 17.327 -4.09459 171.063 19.1821 -178.116
lowerback 9.09708 -2.51883 -0.11841
upperback 8.54826 -2.49659 -0.600817
thorax 3.78013 -0.873913 -0.392626
lowerneck -10.5736 -0.550637 0.885222
upperneck -8.32388 0.192794 5.1835
head -0.847859 0.411757 1.46728
rclavicle -3.3694e-014 1.98785e-014
rhumerus -39.1651 2.02034 -86.5115
rradius 89.1505
rwrist -183.064
rhand -14.1124 -12.0655
rfingers 7.12502
rthumb 12.0207 -41.7003
lclavicle -3.3694e-014 1.98785e-014
lhumerus -27.6997 -3.39567 84.3168
lradius 58.1173
lwrist 228.147
lhand -23.3629 17.6053
lfingers 7.12502
lthumb 3.09265 47.5626
rfemur 0.149071 -11.2473 18.953
rtibia 44.5068
rfoot -21.9521 -21.7922
rtoes 12.5401
lfemur 0.909044 7.46971 -16.7816
ltibia 30.0276
lfoot -13.3675 -6.5866
ltoes 0.274662
1185
root -0.354264 17.3291 -4.06693 171.116 19.4059 -178.085
lowerback 9.04575 -2.49533 -0.00146314
upperback 8.47334 -2.47488 -0.584648
thorax 3.72374 -0.864527 -0.443022
lowerneck -10.5718 -0.533404 0.918432
upperneck -8.23733 0.200158 5.18492
head -0.821032 0.412678 1.46206
rclavicle 3.44891e-014 -1.39149e-014
rhumerus -39.0807 2.08047 -86.4902
rradius 89.7709
rwrist -183.196
rhand -14.1547 -12.0099
rfingers 7.12502
rthumb 11.9799 -41.6471
lclavicle 3.44891e-014 -1.39149e-014
lhumerus -28.0626 -3.83246 84.6206
lradius 59.3361
lwrist 228.569
lhand -23.6043 17.9339
lfingers 7.12502
lthumb 2.85951 47.8945
rfemur 0.41851 -11.6158 18.7944
rtibia 44.4662
rfoot -22.0671 -22.0944
rtoes 13.4103
lfemur 0.756392 7.47966 -16.7502
ltibia 30.0772
lfoot -13.3686 -6.36923
ltoes 0.0438492
1186
root -0.355791 17.3322 -4.0381 171.177 19.6537 -178.071
lowerback 8.97638 -2.46361 0.0933864
upperback 8.40173 -2.44356 -0.567018
thorax 3.68218 -0.851543 -0.480786
lowerneck -10.5073 -0.540983 0.96427
upperneck -8.20813 0.176416 5.15449
head -0.821652 0.39577 1.44367
rclavicle 1.19271e-014 7.95139e-015
rhumerus -38.9821 2.14048 -86.4779
rradius 90.4647
rwrist -183.309
rhand -14.2004 -11.8632
rfingers 7.12502
rthumb 11.9359 -41.5029
lclavicle 1.19271e-014 7.95139e-015
lhumerus -28.4106 -4.22296 84.9322
lradius 60.5396
lwrist 228.856
lhand -23.8683 18.2914
lfingers 7.12502
lthumb 2.6046 48.2553
rfemur 0.669032 -11.961 18.638
rtibia 44.409
rfoot -22.2238 -22.4545
rtoes 14.2313
lfemur 0.585745 7.49187 -16.7314
ltibia 30.1347
lfoot -13.3741 -6.12758
ltoes -0.0286495
1187
root -0.357957 17.3353 -4.00825 171.234 19.9009 -178.033
lowerback 8.94476 -2.43943 0.215135
upperback 8.32861 -2.41977 -0.538394
thorax 3.61762 -0.840986 -0.52049
lowerneck -10.4331 -0.540341 1.01078
upperneck -8.22761 0.169495 5.11213
head -0.839596 0.387626 1.42184
rclavicle -2.78299e-014 7.95139e-015
rhumerus -38.8595 2.21691 -86.4704
rradius 91.1448
rwrist -183.301
rhand -14.1499 -11.8215
rfingers 7.12502
rthumb 11.9846 -41.4584
lclavicle -2.78299e-014 7.95139e-015
lhumerus -28.7944 -4.62355 85.2505
lradius 61.7834
lwrist 229.09
lhand -24.0753 18.7089
lfingers 7.12502
lthumb 2.40467 48.6751
rfemur 0.925971 -12.3077 18.5086
rtibia 44.323
rfoot -22.2695 -22.9384
rtoes 14.4671
lfemur 0.417212 7.46128 -16.6962
ltibia 30.1962
lfoot -13.4024 -5.85285
ltoes -0.289222
